<svg xmlns="http://www.w3.org/2000/svg" width="24" height="24" viewBox="0 0 24 24" fill="none" stroke="#D4AF37" stroke-width="1" stroke-linecap="round" stroke-linejoin="round"><path d="M12 20a8 8 0 1 0 0-16 8 8 0 0 0 0 16z"/><path d="M12 14a2 2 0 1 0 0-4 2 2 0 0 0 0 4z"/><path d="M12 2v2"/><path d="M12 22v-2"/><path d="m17 20.66-1-1.73"/><path d="m8 4.07 1 1.73"/><path d="m7 17-1.73-1"/><path d="m18.93 8 1.73 1"/><path d="M4 12H2"/><path d="M22 12h-2"/><path d="m7 7-1.73-1"/><path d="m18.93 16 1.73 1"/></svg>